# xmcd
#
# Track frame offsets:
#	150
#	16714
#	35169
#	48058
#	64643
#	75670
#	91459
#	105649
#	120721
#	132483
#	146340
#	160602
#	179951
#	190526
#	208058
#
# Disc length: 3061 seconds
#
# Revision: 0
# Processed by: cddbd v1.5.1PL0 Copyright (c) Steve Scherf et al.
# Submitted via: dBpowerAMP V4.0
#
DISCID=c80bf30f
DTITLE=wilson e soraya di paula - vol 01
DYEAR=1900
DGENRE=bandinhas
TTITLE0=cor de caramelo
TTITLE1=nao se va
TTITLE2=cowboy  desarrumado
TTITLE3=seu diario
TTITLE4=bica dagua
TTITLE5=comemorando a vitoria
TTITLE6=a felicidade voa
TTITLE7=meu mel
TTITLE8=o bebim e a mula
TTITLE9=p da vida
TTITLE10=quanto tempo
TTITLE11=so aprendi amar voce 
TTITLE12=comigo e na espora
TTITLE13=fui
TTITLE14=total eclipse do amor
EXTD=
EXTT0=
EXTT1=
EXTT2=
EXTT3=
EXTT4=
EXTT5=
EXTT6=
EXTT7=
EXTT8=
EXTT9=
EXTT10=
EXTT11=
EXTT12=
EXTT13=
EXTT14=
PLAYORDER=
